<?xml version="1.0" encoding="UTF-8"?><svg id="Ebene_27" xmlns="http://www.w3.org/2000/svg" viewBox="0 0 1500 1500"><defs><style>.cls-1{fill:#ffe7b6;}</style></defs><path class="cls-1" d="M169.25,828.61v-.87h30.41v2.61c0,8.98,6.28,12.6,33.85,12.6,24.32,0,30-2.61,30-9.12,0-5.94-4.66-8.11-18.65-9.85l-38.11-3.91c-24.32-2.75-38.71-11.44-38.71-27.22,0-14.62,16.62-29.97,62.23-29.97,41.75,0,61.21,13.76,61.21,34.17v.87h-30.61v-2.03c0-9.27-6.69-13.18-33.65-13.18-21.89,0-28.58,3.04-28.58,9.27,0,5.65,4.46,7.67,15.81,9.12l38.11,4.34c30.41,3.48,41.35,14.04,41.35,27.37,0,15.78-17.23,29.97-60.4,29.97s-64.25-11.58-64.25-34.17Z"/><path class="cls-1" d="M302.83,861.34l59.39-97.01h43.38l59.8,97.01h-34.86l-12.77-21.43h-67.9l-12.97,21.43h-34.05ZM361.61,820.36h44.39l-12.77-21.14-8.31-15.06h-2.23l-8.31,15.06-12.77,21.14Z"/><path class="cls-1" d="M478.16,861.34v-97.01h32.43l48.65,45.9,19.73,19.72v.7s-.27-19.55-.27-19.55v-46.77h30.41v97.01h-32.43l-50.07-46.33-18.48-17.75.35-.5.09,17.81v46.77h-30.4Z"/><path class="cls-1" d="M632.61,861.34v-97.01h65.47c43.58,0,71.15,18.1,71.15,48.5s-27.57,48.51-71.15,48.51h-65.47ZM663.02,783.87v57.92h35.07c27.57,0,38.71-5.65,38.71-28.96s-11.15-28.96-38.71-28.96h-35.07Z"/><path class="cls-1" d="M787.47,861.34v-97.01h81.48c27.77,0,42.77,8.4,42.77,23.6,0,12.02-8.92,20.71-31.62,21.86v1.3c25.13,1.3,37.3,10.28,37.3,23.31,0,16.51-14.19,26.93-44.59,26.93h-85.34ZM817.88,802.84h47.63c11.15,0,15.81-2.75,15.81-9.41s-4.86-9.55-16.22-9.55h-47.23v18.97ZM817.88,841.79h51.28c12.36,0,17.43-2.75,17.43-10.57s-5.07-10.42-17.43-10.42h-51.28v20.99Z"/><path class="cls-1" d="M934.22,861.34v-97.01h114.93v19.55h-84.52v18.97h81.48v19.4h-81.48v19.55h84.52v19.55h-114.93Z"/><path class="cls-1" d="M1068.61,861.34v-97.01h75c33.44,0,52.5,10.57,52.5,29.1,0,15.78-12.77,25.2-38.31,26.93v1.16c12.16,2.32,16.82,6.95,21.89,13.76l19.66,26.06h-35.27l-18.65-25.19c-5.47-7.53-10.54-9.99-26.35-9.99h-20.07v35.19h-30.41ZM1099.01,809.79h44.39c14.39,0,20.88-2.89,20.88-13.03,0-9.56-6.49-12.89-20.88-12.89h-44.39v25.92Z"/><path class="cls-1" d="M1211.51,812.83c0-30.26,28.78-49.95,75.4-49.95,42.57,0,69.53,14.19,69.53,37.5v1.16h-33.85v-1.16c0-11.29-10.34-16.65-36.49-16.65-30.81,0-42.36,7.53-42.36,29.1s11.15,29.1,40.94,29.1,37.07-5.9,37.63-15.78h-42.09v-16.07h76.42v51.26h-28.17v-20.85h-1.62c-4.66,12.74-18.85,22.3-48.24,22.3-41.55,0-67.09-19.69-67.09-49.95Z"/><path class="cls-1" d="M454.13,922.55c0-14.63,9.66-24.15,24.22-24.15,13.23,0,22.47,7,22.47,18.2v.98h-8.33v-.98c0-7.14-4.55-10.99-14.07-10.99-10.99,0-16.31,5.25-16.31,16.94s5.32,16.87,16.31,16.87c9.52,0,14.07-3.78,14.07-10.99v-.91h8.33v.91c0,11.27-9.17,18.27-22.47,18.27-14.56,0-24.22-9.52-24.22-24.15Z"/><path class="cls-1" d="M506.42,946.01v-46.9h24.36c10.64,0,17.22,5.04,17.22,13.79,0,7.77-5.11,12.53-13.93,13.02v.49c3.64.98,5.32,3.08,7,6.02l7.84,13.58h-8.68l-7.49-12.95c-2.1-3.71-4.27-5.25-10.15-5.25h-8.61v18.2h-7.56ZM513.98,921.99h16.73c6.3,0,9.45-2.17,9.45-8.05s-3.15-8.05-9.45-8.05h-16.73v16.1Z"/><path class="cls-1" d="M553.46,946.01v-46.9h37.52v6.79h-29.96v13.16h28.91v6.72h-28.91v13.44h29.96v6.79h-37.52Z"/><path class="cls-1" d="M593.35,946.01l20.93-46.9h10.64l20.93,46.9h-8.54l-5.39-12.18h-24.78l-5.39,12.18h-8.4ZM610.16,927.03h18.76l-6.37-14.28-2.73-6.65h-.56l-2.73,6.65-6.37,14.28Z"/><path class="cls-1" d="M655.32,946.01v-40.11h-18.48v-6.79h44.38v6.79h-18.41v40.11h-7.49Z"/><path class="cls-1" d="M685.63,946.01v-46.91h7.56v46.91h-7.56Z"/><path class="cls-1" d="M698.79,922.55c0-14.63,9.73-24.15,24.43-24.15s24.5,9.52,24.5,24.15-9.66,24.15-24.5,24.15-24.43-9.52-24.43-24.15ZM739.74,922.55c0-11.69-5.39-16.94-16.52-16.94s-16.45,5.25-16.45,16.94,5.32,16.87,16.45,16.87,16.52-5.18,16.52-16.87Z"/><path class="cls-1" d="M753.32,946.01v-46.91h8.12l21,27.44,6.09,8.75h.56l-.35-8.47v-27.72h7.56v46.91h-8.12l-21.14-27.37-5.88-8.26h-.56l.28,8.12v27.51h-7.56Z"/><path class="cls-1" d="M813.8,930.68v-.42h7.56v1.12c0,5.6,3.29,8.4,13.58,8.4,8.96,0,12.11-1.96,12.11-6.37,0-4.06-2.38-5.6-8.33-6.72l-11.48-1.89c-7.91-1.4-13.51-5.04-13.51-12.74,0-6.79,5.6-13.65,20.16-13.65,13.72,0,19.95,6.86,19.95,16.03v.42h-7.49v-.91c0-5.74-3.43-8.61-13.16-8.61-8.54,0-11.9,2.1-11.9,6.3s2.38,5.39,7.91,6.58l11.41,1.96c9.38,1.68,14,5.95,14,12.81s-5.81,13.72-19.67,13.72-21.14-6.16-21.14-16.03Z"/><path class="cls-1" d="M875.82,946.01v-40.11h-18.48v-6.79h44.38v6.79h-18.41v40.11h-7.49Z"/><path class="cls-1" d="M905.84,926.55v-27.44h7.49v26.95c0,9.45,4.2,13.37,14.49,13.37s14.49-3.92,14.49-13.37v-26.95h7.56v27.44c0,12.74-7.98,20.16-22.05,20.16s-21.98-7.42-21.98-20.16Z"/><path class="cls-1" d="M957.01,946.01v-46.91h21.35c14.56,0,23.73,8.96,23.73,23.45s-9.17,23.45-23.73,23.45h-21.35ZM964.5,905.89v33.32h13.86c10.85,0,15.75-4.62,15.75-16.66s-4.9-16.66-15.75-16.66h-13.86Z"/><path class="cls-1" d="M1007.69,946.01v-46.91h7.56v46.91h-7.56Z"/><path class="cls-1" d="M1020.85,922.55c0-14.63,9.73-24.15,24.43-24.15s24.5,9.52,24.5,24.15-9.66,24.15-24.5,24.15-24.43-9.52-24.43-24.15ZM1061.81,922.55c0-11.69-5.39-16.94-16.52-16.94s-16.45,5.25-16.45,16.94,5.32,16.87,16.45,16.87,16.52-5.18,16.52-16.87Z"/></svg>